<?xml version="1.0" encoding="utf-8"?>
<!-- Generator: Adobe Illustrator 26.0.1, SVG Export Plug-In . SVG Version: 6.00 Build 0)  -->
<svg version="1.1" id="Layer_1" xmlns="http://www.w3.org/2000/svg" xmlns:xlink="http://www.w3.org/1999/xlink" x="0px" y="0px"
	 viewBox="0 0 837.9 917.4" style="enable-background:new 0 0 837.9 917.4;" xml:space="preserve">
<g>
	<path d="M553.4,314.8l49.3-49.3l49.3,49.3l-49.3,49.3L553.4,314.8z"/>
	<path d="M0,868.1l533.5-533.5l49.3,49.3L49.3,917.4L0,868.1z"/>
	<path d="M813.4,550.9c-21.3-5.5-40-18.1-53.1-35.8c-13.1-17.6-19.8-39.2-18.9-61.2c0.3-7.2-4.9-13.4-12-14.4
		c-7.1-1.1-13.8,3.4-15.7,10.3c-5.5,21.3-18.1,40-35.8,53.1c-17.6,13.1-39.2,19.8-61.2,18.9c-7.2-0.3-13.4,4.9-14.4,12
		c-1.1,7.1,3.4,13.8,10.4,15.7c21.3,5.5,40,18.1,53.1,35.8c13.1,17.6,19.8,39.2,18.9,61.2c-0.3,7.2,4.9,13.4,12,14.4
		c7.1,1,13.8-3.4,15.7-10.4c5.5-21.3,18.1-40,35.8-53.1s39.3-19.8,61.2-18.8c7.2,0.3,13.4-4.9,14.4-12
		C824.7,559.5,820.3,552.7,813.4,550.9L813.4,550.9z"/>
	<path d="M815.9,41c-12.9,8.9-28.4,13.2-44,12.1c-15.6-1.1-30.4-7.6-41.9-18.3c-5.3-4.9-13.3-5-18.8-0.3c-5.4,4.7-6.4,12.7-2.4,18.6
		c8.9,12.9,13.2,28.4,12.1,44c-1.1,15.6-7.6,30.4-18.3,41.9c-4.9,5.3-5,13.3-0.3,18.8c4.7,5.4,12.7,6.4,18.6,2.4
		c12.9-8.9,28.4-13.2,44-12.1c15.6,1.1,30.4,7.6,41.9,18.3c5.3,4.9,13.3,5,18.8,0.3c5.4-4.7,6.4-12.7,2.4-18.6
		c-8.9-12.9-13.2-28.4-12.1-44c1.1-15.6,7.6-30.4,18.3-41.9c4.9-5.3,5-13.3,0.3-18.8C829.8,37.9,821.8,36.9,815.9,41L815.9,41z"/>
	<path d="M247.6,94.3c26.3,14.7,46.7,38,57.9,66c11.2,28,12.4,58.9,3.6,87.7c-2.1,6.9,1.3,14.2,7.9,17c6.6,2.8,14.2,0.2,17.8-6
		c14.7-26.3,38-46.7,66-57.9s58.9-12.4,87.7-3.6c6.9,2.1,14.2-1.3,17-7.9c2.8-6.6,0.2-14.2-6-17.8c-26.3-14.7-46.7-38-57.9-66
		c-11.2-28-12.4-58.9-3.6-87.7c2.1-6.9-1.3-14.2-7.9-17c-6.6-2.8-14.2-0.2-17.8,6c-14.7,26.3-38,46.7-66,57.9
		c-27.9,11.2-58.9,12.4-87.7,3.6c-6.9-2.1-14.2,1.3-17,7.9C238.7,83.1,241.3,90.7,247.6,94.3L247.6,94.3z"/>
</g>
</svg>
