<svg xmlns="http://www.w3.org/2000/svg" viewBox="0 0 48 48"><defs><style>.a{fill:#2f2927;}</style></defs><title>airplane</title><path class="a" d="M31.49,15.74l0.32,0.32c0.14,0.15-.24.23-0.29,0.43a2,2,0,0,0,.39.36c0,0.07-.19.13-0.15,0.2,0.48,0.44,1,.95,1.51,1.46A6.74,6.74,0,0,1,34.5,20a17.63,17.63,0,0,1-3-2.76c-0.2.3-.4-0.19-0.6-0.12a0.68,0.68,0,0,0,0,.17,5.56,5.56,0,0,0,.44.49,3.23,3.23,0,0,1,.57.7,0.94,0.94,0,0,1-.08.37c-0.2.22-.39,0.43-0.57,0.65a4.76,4.76,0,0,0-.49.62,1.37,1.37,0,0,1-.12.31c-0.11.12-.26,0.15-0.36,0.28a1.09,1.09,0,0,0-.12.25,0.69,0.69,0,0,1-.08.27,1.43,1.43,0,0,0-.45.24c-0.25.34,0.13,0.6,0.45,1C32.57,25.3,35,28.12,37.47,31c0.51,0.6,1.23,1.21,1,1.81a4.73,4.73,0,0,1-1.38,1.38c-0.55.44-1,.82-1.5,1.18a3.74,3.74,0,0,1-.77-0.13c-1-.71-2.1-1.76-3.16-2.66-0.23-.2-0.47-0.41-0.65-0.54-0.51-.36-1.1-0.89-1.51-1.25C28.84,30.23,28,29.5,27.4,29c-0.13-.11-0.25-0.25-0.4-0.37s-0.61-.46-0.89-0.73-0.86-.74-1.29-1.1c-0.28-.23-0.43-0.39-0.57,0-0.08.09-.18,0.14-0.09,0.2C24,26.87,24,27,23.95,27.09s-0.16.09-.23,0.15-0.11.14-.17,0.2-0.13.06-.19,0.11-0.1.14-.16,0.19S23,27.88,22.84,28c-0.81.64-1.66,1.31-2.48,1.9s-1.93,1.29-2.83,1.87c0.27,0.64.6,1.29,0.9,2a21.28,21.28,0,0,1,.93,2,0.85,0.85,0,0,1-.17,1,2.49,2.49,0,0,1-1.51,1,4.24,4.24,0,0,1-1.21-1c-0.14-.13-0.24-0.27-0.35-0.37s-0.23-.16-0.33-0.25c-0.54-.49-1.09-1-1.59-1.49a0.9,0.9,0,0,1,.07-0.41,0.43,0.43,0,0,0,0-.41c-0.34-.21-1,1.19-1.41.82-0.21-.21.13-0.47,0.37-0.72a0.87,0.87,0,0,0,.44-0.7,0.45,0.45,0,0,0-.41,0,0.71,0.71,0,0,1-.41,0,2.87,2.87,0,0,1-.53-0.61c-0.28-.31-0.64-0.64-0.94-1-0.1-.11-0.16-0.24-0.25-0.33S10.9,31.16,10.79,31c-0.45-.49-1.18-1.09-1-1.59a3.22,3.22,0,0,1,.6-0.78A2.53,2.53,0,0,1,11.18,28a1.23,1.23,0,0,1,.68.09c0.66,0.26,1.28.63,1.94,0.93s1.25,0.6,1.93.89c0.86-1.37,1.85-2.86,2.94-4.27,0.28-.36.57-0.69,0.86-1.08,0.17-.23.33-0.46,0.53-0.69s0.25-.25.36-0.39a0.23,0.23,0,0,0,.12-0.23c0,0.14.13-.05,0.21-0.11,0.47-.09-0.15-0.64-0.37-0.9-1-1.19-1.89-2.2-2.9-3.4-0.64-.77-1.26-1.44-2-2.29-0.07-.09-0.11-0.23-0.19-0.32S15,16,14.89,15.82c-0.88-1-1.88-2.13-2.64-3.15a2.11,2.11,0,0,1-.12-0.78,3,3,0,0,1,.28-0.39A24.1,24.1,0,0,1,14,9.61,1.22,1.22,0,0,1,15.22,9a5.88,5.88,0,0,1,1.32,1c0.45,0.39.89,0.79,1.3,1.14,2.41,2.05,4.75,4.08,7.18,6.17,0.35,0.3.64,0.69,1,.43a3.27,3.27,0,0,0,.24-0.45,1.17,1.17,0,0,1,.28-0.09,0.85,0.85,0,0,0,.24-0.11c0.09-.07.17-0.27,0.28-0.36a1.9,1.9,0,0,1,.29-0.11c0.4-.22.86-0.8,1.3-1.06A0.53,0.53,0,0,1,29,15.51a3.42,3.42,0,0,1,.72.61c0.12,0.1.25,0.2,0.36,0.31a0.36,0.36,0,0,0,.35.19,1,1,0,0,0-.25-0.41c0-.06.17-0.12,0.11-0.19-0.48-.44-1-0.95-1.51-1.46A6.71,6.71,0,0,1,27.55,13a17.63,17.63,0,0,1,3,2.76c0.07,0,.13-0.16.2-0.15a1.79,1.79,0,0,0,.35.37C31.26,16,31.35,15.6,31.49,15.74Z"/></svg>